<svg xmlns="http://www.w3.org/2000/svg" viewBox="0 0 100 100" fill="none">
  <!-- Friendly Party Balloon -->
  <path d="M50 15 C30 15, 20 30, 20 50 C20 70, 35 80, 50 80 C65 80, 80 70, 80 50 C80 30, 70 15, 50 15 Z" fill="#F59E0B" />
  <!-- Balloon Tie knot -->
  <path d="M47 80 L53 80 L50 85 Z" fill="#D97706" />
  <!-- Balloon String -->
  <path d="M50 85 Q48 90, 50 95" stroke="#1E293B" stroke-width="3" stroke-linecap="round" fill="none" />
  <!-- Crown detail overlay -->
  <path d="M38 48 L44 58 L50 48 L56 58 L62 48 L58 64 L42 64 Z" fill="#FFFFFF" />
  <!-- Center tiny spark -->
  <path d="M50 32 L51.5 35 L55 35 L52 37 L53 41 L50 39 L47 41 L48 37 L45 35 L48.5 35 Z" fill="#FFFFFF" />
</svg>
